# xmcd CD database file
#
# Track frame offsets:
#	150
#	16259
#	32808
#	48929
#	60155
#	76202
#	88770
#	103633
#	115442
#	131808
#	144806
#	166234
#	179696
#	202427
#	218972
#	239112
#
# Disc length: 3321 seconds
#
# Revision: 3
# Processed by: cddbd v1.5.2PL0 Copyright (c) Steve Scherf et al.
# Submitted via: CDex 1.70beta2
#
DISCID=e60cf710
DTITLE=The Swingle Singers - Ticket To Ride-A Tribute to the Beatles
DYEAR=2002
DGENRE=Jazz
TTITLE0=Ticket to ride
TTITLE1=Penny lane
TTITLE2=Revolution
TTITLE3=Day tripper
TTITLE4=Norwegian wood
TTITLE5=Birthday
TTITLE6=Lady Madonna
TTITLE7=Yesterday
TTITLE8=Strawberry fields forever
TTITLE9=Drive my car
TTITLE10=Blackberry - I Will
TTITLE11=When I'm sixty-four
TTITLE12=The fool on the hill
TTITLE13=All my loving
TTITLE14=I am the walrus
TTITLE15=Goodnight
EXTD=YEAR: 2002
EXTT0=
EXTT1=
EXTT2=
EXTT3=
EXTT4=
EXTT5=
EXTT6=
EXTT7=
EXTT8=
EXTT9=
EXTT10=
EXTT11=
EXTT12=
EXTT13=
EXTT14=
EXTT15=
PLAYORDER=
